<svg xmlns="http://www.w3.org/2000/svg" version="1.0" width="128" height="128" preserveAspectRatio="xMidYMid meet" style=""><rect id="backgroundrect" width="100%" height="100%" x="0" y="0" fill="none" stroke="none"/>


<g class="currentLayer" style=""><title>Layer 1</title><g transform="translate(0,128) scale(0.10000000149011612,-0.10000000149011612) " fill="#ffffff" stroke="none" id="svg_1" class="selected" fill-opacity="1">
<path d="M95 1196 c-42 -19 -71 -54 -85 -101 -8 -28 -10 -147 -8 -397 3 -342 4 -358 24 -384 50 -67 55 -69 285 -72 l209 -3 0 -59 0 -59 -37 -3 c-31 -2 -39 -7 -41 -25 l-3 -23 205 0 206 0 0 25 c0 23 -4 25 -45 25 l-45 0 0 59 0 60 209 3 c239 3 246 6 289 89 23 44 23 46 20 411 -3 352 -4 368 -24 394 -11 15 -33 37 -48 48 -27 21 -40 21 -554 23 -424 2 -533 0 -557 -11z m1059 -50 c66 -27 66 -29 66 -348 l0 -288 -580 0 -580 0 0 288 c0 317 0 320 64 348 46 20 982 20 1030 0z m66 -741 c0 -35 -6 -52 -29 -77 l-29 -33 -522 0 -522 0 -29 33 c-23 25 -29 42 -29 77 l0 45 580 0 580 0 0 -45z m-520 -225 l0 -60 -60 0 -60 0 0 60 0 60 60 0 60 0 0 -60z" id="svg_2" fill="#ffffff" fill-opacity="1"/>
<path d="M595 1091 c-100 -25 -175 -113 -175 -206 l0 -35 118 0 118 0 89 48 c51 27 91 54 93 64 5 24 -73 105 -111 117 -50 16 -99 20 -132 12z m129 -74 c22 -12 41 -27 43 -34 3 -7 -26 -28 -66 -48 -63 -31 -79 -35 -151 -35 l-80 0 15 37 c9 21 23 45 31 54 46 51 143 64 208 26z" id="svg_3" fill="#ffffff" fill-opacity="1"/>
<path d="M745 854 l-80 -43 -107 -1 c-123 0 -127 -4 -107 -83 14 -57 70 -124 123 -148 138 -62 302 34 313 184 5 65 -16 131 -43 133 -10 1 -55 -18 -99 -42z m86 -46 c4 -90 -28 -149 -98 -180 -80 -35 -175 -3 -213 73 -11 21 -20 41 -20 44 0 3 37 5 83 5 75 1 88 4 157 40 41 21 78 39 83 40 4 0 7 -10 8 -22z" id="svg_4" fill="#ffffff" fill-opacity="1"/>
</g></g></svg>