<svg xmlns="http://www.w3.org/2000/svg" xmlns:xlink="http://www.w3.org/1999/xlink" version="1.1" style="enable-background:new 0 0 512 512;" xml:space="preserve" width="128" height="128"><rect id="backgroundrect" width="100%" height="100%" x="0" y="0" fill="none" stroke="none" style="" class=""/>



















<g class="currentLayer" style=""><title>Layer 1</title><g id="svg_4" class="selected" fill="#ffffff" fill-opacity="1">
	<g id="svg_5" fill="#ffffff" fill-opacity="1">
		<path d="M103.64630794159336,105.62003291478413 h-3.3244643045781994 v-2.3610321902740794 c0,-6.509365748585636 -7.456773435168901,-11.805160951370397 -16.622321522891,-11.805160951370397 H30.508093240872974 c-9.165548087722097,0 -16.622321522891,5.29579520278476 -16.622321522891,11.805160951370397 v2.3610321902740794 H10.561307413403775 c-1.836101635418541,0 -3.3244643045781994,1.057270214804733 -3.3244643045781994,2.3610321902740794 c0,1.303761975469347 1.4883626691596605,2.3610321902740794 3.3244643045781994,2.3610321902740794 c4.454782168134787,0 86.56373134832897,0 93.08500052818958,0 c1.836101635418541,0 3.3244643045781994,-1.057270214804733 3.3244643045781994,-2.3610321902740794 C106.97077224617155,106.67730312958889 105.48240957701191,105.62003291478413 103.64630794159336,105.62003291478413 zM93.67291502785876,105.62003291478413 H20.53470032713838 v-2.3610321902740794 c0,-3.905619449151382 4.47406406110134,-7.083096570822238 9.973392913734598,-7.083096570822238 h53.19142887325119 c5.4993288526332575,0 9.973392913734598,3.177477121670856 9.973392913734598,7.083096570822238 V105.62003291478413 z" id="svg_6" fill="#ffffff" fill-opacity="1"/>
	</g>
</g><g id="svg_10" class="" fill="#ffffff" fill-opacity="1">
	<g id="svg_11" fill="#ffffff" fill-opacity="1">
		<path d="M118.2533527922709,52.38587446213304 c-2.1744853056009066,0 -50.259772213748626,0 -51.003918446768274,0 c0.549735203901562,-2.6209879334219566 1.3859492392942545,-5.183174670667335 2.4952840544944896,-7.650940256359944 C72.55977366094798,44.21269665896125 74.68555345502564,41.92642322685211 74.68555345502564,39.19329839687548 V31.654683502442584 c0,-1.0407057861764621 -0.9200614982681472,-1.8846537236082237 -2.0550848743983607,-1.8846537236082237 H31.52877109266008 c-1.135023376130215,0 -2.0550848743983607,0.8439479374317637 -2.0550848743983607,1.8846537236082237 v7.538614894432894 c0,2.6671619496503576 2.0248751267447043,4.907261365531092 4.73820368641286,5.499419565488797 c4.3876062068405,9.738382720628412 4.3876062068405,20.72516006777491 0,30.463542788403323 C31.498561345006422,75.7484189507253 29.47368621826172,77.98851836660602 29.47368621826172,80.65568031625638 v7.538614894432894 c0,1.0407057861764621 0.9200614982681472,1.8846537236082237 2.0550848743983607,1.8846537236082237 h41.101697487967215 c1.135023376130215,0 2.0550848743983607,-0.8439479374317637 2.0550848743983607,-1.8846537236082237 v-7.538614894432894 c0,-2.7331248299766457 -2.1257797940776646,-5.019398262085781 -4.940835055028539,-5.54163580889762 c-1.1093348152002354,-2.4677655856926077 -1.9455488505929281,-5.0297638575656265 -2.4952840544944896,-7.650940256359944 c0.7441462330196464,0 48.82943314116737,0 51.003918446768274,0 c4.541121046958057,0 8.220339497593443,-3.3731532345139983 8.220339497593443,-7.538614894432894 C126.47369228986435,55.76769710377564 122.78604799124392,52.38587446213304 118.2533527922709,52.38587446213304 zM35.6389408414568,41.077952120483694 c-1.1331737997432567,0 -2.0550848743983607,-0.84545566041065 -2.0550848743983607,-1.8846537236082237 V33.539337226050804 h36.99152773917049 v5.653961170824671 c0,1.0391980631975744 -0.9219110746551056,1.8846537236082237 -2.0550848743983607,1.8846537236082237 h-0.14180085633348707 c-0.004726695211116245,0 -0.009658898909672307,0 -0.014385594120788544,0 H35.6389408414568 zM62.79318830385723,65.83325571082244 c0.46670977497586824,3.13512146922228 1.3037458443183199,6.207672434820767 2.4926124441577713,9.168274969236924 H38.684576625315174 c3.8982904982462507,-9.718970787275246 3.8982904982462507,-20.454335327692412 0,-30.173306114967655 h26.60122412269982 c-1.1888665998394523,2.96097946516088 -2.025902669181904,6.052188502623086 -2.4926124441577713,9.187121506473005 C62.209133182553195,57.936368143531624 62.209133182553195,61.91242210422787 62.79318830385723,65.83325571082244 zM68.520504340318,78.77102659264817 c1.1331737997432567,0 2.0550848743983607,0.84545566041065 2.0550848743983607,1.8846537236082237 v5.653961170824671 H70.57538370622892 H33.58385596705844 v-5.653961170824671 c0,-1.0371249441016066 0.9184174303686284,-1.8810728815333684 2.0487141112877256,-1.884276792863502 c0.0018495763869585324,0 0.003493644286477222,0.00018846537236082278 0.005343220673435749,0.00018846537236082278 c0.0028771188241577114,0 0.0055487291608755825,-0.0005653961170824682 0.008425847985033307,-0.0005653961170824682 C37.77150241561998,78.77102659264817 66.44836226146214,78.77102659264817 68.520504340318,78.77102659264817 zM74.68555345502564,63.69379680378238 h-8.0240788920884 c-0.2595572196365134,-2.5071548485160196 -0.2595572196365134,-5.031271580544514 0,-7.538614894432894 H74.68555345502564 V63.69379680378238 zM118.2533527922709,63.69379680378238 H78.79572320382238 v-7.538614894432894 h39.457629588448526 c2.2663475994865125,0 4.1101697487967215,1.6909113208212982 4.1101697487967215,3.769307447216447 C122.36352254106762,62.006089394291216 120.52339954453134,63.69379680378238 118.2533527922709,63.69379680378238 z" id="svg_12" fill="#ffffff" fill-opacity="1"/>
	</g>
</g><g id="svg_13">
</g><g id="svg_14">
</g><g id="svg_15">
</g><g id="svg_16">
</g><g id="svg_17">
</g><g id="svg_18">
</g><g id="svg_19">
</g><g id="svg_20">
</g><g id="svg_21">
</g><g id="svg_22">
</g><g id="svg_23">
</g><g id="svg_24">
</g><g id="svg_25">
</g><g id="svg_26">
</g><g id="svg_27">
</g></g></svg>