<?xml version="1.0" encoding="utf-8"?>
<!-- Generator: Adobe Illustrator 23.0.3, SVG Export Plug-In . SVG Version: 6.00 Build 0)  -->
<svg version="1.1" id="e35c4563-06f7-43a3-b0b1-983f0d8b7679"
	 xmlns="http://www.w3.org/2000/svg" xmlns:xlink="http://www.w3.org/1999/xlink" x="0px" y="0px" viewBox="0 0 38 38"
	 style="enable-background:new 0 0 38 38;" xml:space="preserve">
<style type="text/css">
	.st0{fill:#099667;}
	.st1{fill:#FFFFFF;}
</style>
<path class="st0" d="M19,0.6C8.8,0.6,0.6,8.8,0.6,19S8.8,37.4,19,37.4S37.4,29.2,37.4,19c0,0,0,0,0,0C37.4,8.8,29.2,0.6,19,0.6z"/>
<circle class="st1" cx="19" cy="26.2" r="1.9"/>
<path class="st1" d="M19,21.6L19,21.6c-0.6,0-1.2-0.5-1.2-1.1l-0.4-8.9c0-0.9,0.7-1.7,1.6-1.7c0,0,0,0,0.1,0l0,0
	c0.9,0,1.7,0.7,1.7,1.7c0,0,0,0.1,0,0.1l-0.5,8.9C20.1,21.1,19.6,21.6,19,21.6z"/>
</svg>
