<svg xmlns="http://www.w3.org/2000/svg" xmlns:xlink="http://www.w3.org/1999/xlink" enable-background="new 0 0 32 32" version="1.1" xml:space="preserve" width="63.33333206176758" height="53.06666564941406"><rect id="backgroundrect" width="100%" height="100%" x="0" y="0" fill="none" stroke="none" style="" class=""/><g class="currentLayer" style=""><title>Layer 1</title><path clip-rule="evenodd" d="M37.76666660308838,24.819000381469728 L22.82266660308838,9.875000381469727 c-0.202,-0.202 -0.467,-0.30100000000000005 -0.7310000000000001,-0.29900000000000004 c-0.008000000000000002,0 -0.014000000000000002,-0.004000000000000001 -0.022000000000000006,-0.004000000000000001 h-15 c-0.552,0 -1,0.44800000000000006 -1,1 c0,0.008000000000000002 0.004000000000000001,0.014000000000000002 0.004000000000000001,0.022000000000000006 C6.072666603088379,10.858000381469726 6.171666603088379,11.123000381469726 6.372666603088379,11.325000381469726 l14.246,14.246 L6.342666603088379,39.84700038146973 c-0.401,0.401 -0.401,1.051 0,1.452 c0.23800000000000002,0.23800000000000002 0.561,0.31700000000000006 0.8700000000000001,0.273 h14.711 c0.30900000000000005,0.04400000000000001 0.6320000000000001,-0.035 0.8700000000000001,-0.273 l14.972,-14.972 c0.20800000000000002,-0.20800000000000002 0.30300000000000005,-0.48200000000000004 0.29500000000000004,-0.7550000000000001 C38.06866660308838,25.301000381469727 37.973666603088375,25.027000381469726 37.76666660308838,24.819000381469728 zM21.61766660308838,39.57200038146973 H9.521666603088379 l13.244,-13.244 c0.20800000000000002,-0.20800000000000002 0.30300000000000005,-0.48200000000000004 0.29500000000000004,-0.7550000000000001 c0.008000000000000002,-0.272 -0.08700000000000002,-0.546 -0.29500000000000004,-0.7540000000000001 L9.519666603088378,11.572000381469726 h12.101 l13.999,13.999 L21.61766660308838,39.57200038146973 z" fill="#ffffff" fill-rule="evenodd" id="Border_Arrow_Right" class="" fill-opacity="1"/><path clip-rule="evenodd" d="M60.38805685080588,24.68332331763208 L45.44405685080588,9.739323317632078 c-0.202,-0.202 -0.467,-0.3010000000000002 -0.7310000000000004,-0.2990000000000002 c-0.008000000000000007,0 -0.014000000000000007,-0.0040000000000000036 -0.022000000000000026,-0.0040000000000000036 h-15 c-0.552,0 -1,0.4480000000000003 -1,1 c0,0.008000000000000007 0.0040000000000000036,0.014000000000000007 0.0040000000000000036,0.022000000000000026 C28.69405685080588,10.722323317632078 28.79305685080588,10.987323317632079 28.99405685080588,11.18932331763208 l14.246,14.246 L28.96405685080588,39.71132331763208 c-0.401,0.401 -0.401,1.051 0,1.452 c0.23800000000000004,0.23800000000000004 0.561,0.3170000000000002 0.8700000000000004,0.273 h14.711 c0.3090000000000002,0.04400000000000004 0.6320000000000005,-0.035 0.8700000000000004,-0.273 l14.972,-14.972 c0.2080000000000001,-0.2080000000000001 0.3030000000000002,-0.4820000000000002 0.2950000000000002,-0.7550000000000004 C60.69005685080588,25.16532331763208 60.595056850805875,24.89132331763208 60.38805685080588,24.68332331763208 zM44.23905685080588,39.43632331763208 H32.14305685080588 l13.244,-13.244 c0.2080000000000001,-0.2080000000000001 0.3030000000000002,-0.4820000000000002 0.2950000000000002,-0.7550000000000004 c0.008000000000000007,-0.272 -0.08700000000000008,-0.546 -0.2950000000000002,-0.7540000000000004 L32.14105685080588,11.43632331763208 h12.101 l13.999,13.999 L44.23905685080588,39.43632331763208 z" fill="#ffffff" fill-rule="evenodd" class="" id="svg_7" fill-opacity="1"/><g id="svg_1"/><g id="svg_2"/><g id="svg_3"/><g id="svg_4"/><g id="svg_5"/><g id="svg_6"/><path fill="#ffffff" fill-opacity="1" stroke="none" stroke-opacity="1" stroke-width="1" stroke-dasharray="none" stroke-linejoin="miter" stroke-linecap="butt" stroke-dashoffset="" fill-rule="evenodd" opacity="1" marker-start="" marker-mid="" marker-end="" d="M4,3 C4,3 4.895027624309392,3 6,3 C7.104972375690608,3 8,3 8,3 C8,3 7.104972375690608,3 6,3 C4.895027624309392,3 4,3 4,3 Z" id="svg_8"/><path fill="#ffffff" stroke-dashoffset="" fill-rule="evenodd" marker-start="" marker-mid="" marker-end="" id="svg_9" d="M305.5975663736915,1.0012603863966878 C306.90930462803607,1.0012603863966878 307.97346179913006,2.0664421863910034 307.97346179913006,3.3781804407476335 C307.97346179913006,4.689919335497308 306.90930462803607,5.754076186386153 305.5975663736915,5.754076186386153 C304.28582747894603,5.754076186386153 303.22167030785187,6.819258946970025 303.22167030785187,8.130996881130137 C303.22167030785187,9.442735455683275 304.28582747894603,10.506892626768616 305.5975663736915,10.506892626768616 C308.22104288240604,10.506892626768616 310.35038153328617,8.37755237490283 310.35038153328617,5.754075866189595 C310.35038153328617,3.1305990372797825 308.22104288240604,1.0012600662001931 305.5975663736915,1.0012600662001931 L305.5975663736915,1.0012603863966878 zM305.5975663736915,2.635393003812084 C305.18743719971303,2.635393003812084 304.85477829635914,2.9680506263767845 304.85477829635914,3.3781804407476335 C304.85477829635914,3.788310895511594 305.1874362391245,4.120967877683127 305.5975663736915,4.120967877683127 C306.00769618805566,4.120967877683127 306.3403534904269,3.7883102551185206 306.3403534904269,3.3781804407476335 C306.3403534904269,2.9680506263767845 306.00769618805566,2.635393003812084 305.5975663736915,2.635393003812084 zM305.5975663736915,7.388209764391099 C306.0074838977664,7.388209764391099 306.3403534904269,7.721078716668232 306.3403534904269,8.130997201326661 C306.3403534904269,8.540914725395439 306.00748421794464,8.873785278655228 305.5975663736915,8.873785278655228 C305.18764820922416,8.873785278655228 304.85477829635914,8.540915045591994 304.85477829635914,8.130997201326661 C304.85477829635914,7.721079677257839 305.18764820922416,7.388209764391099 305.5975663736915,7.388209764391099 zM310.2437791415922,5.757104605205162 C310.2437791415922,8.378632077615672 308.11861201116056,10.503800168642789 305.4970829377572,10.503800168642789 C302.87555514516,10.503800168642789 300.75038673394005,8.378632077615672 300.75038673394005,5.757104605205162 C300.75038673394005,3.135576172205069 302.87555514516,1.010407440784884 305.4970829377572,1.010407440784884 C308.11861201116056,1.010407440784884 310.2437791415922,3.135576172205069 310.2437791415922,5.757104605205162 z" style="color: rgb(0, 0, 0);"/></g></svg>