<svg xmlns="http://www.w3.org/2000/svg" version="1.0" width="128.000000" height="128.000000" preserveAspectRatio="xMidYMid meet"><rect id="backgroundrect" width="100%" height="100%" x="0" y="0" fill="none" stroke="none" style="" class=""/>


<g class="currentLayer" style=""><title>Layer 1</title><g transform="translate(0,128) scale(0.10000000149011612,-0.10000000149011612) " fill="#ffffff" stroke="none" id="svg_1" class="selected" fill-opacity="1">
<path d="M426 1184 c-12 -11 -16 -36 -16 -94 l0 -79 -154 -3 c-168 -3 -182 -8 -230 -72 -20 -27 -21 -39 -21 -391 0 -352 1 -364 21 -391 11 -15 33 -37 48 -48 27 -21 38 -21 566 -21 528 0 539 0 567 21 15 11 38 40 51 65 22 44 23 47 20 391 -3 332 -4 348 -24 374 -48 64 -62 69 -230 72 l-154 3 0 79 c0 114 9 110 -230 110 -167 0 -201 -2 -214 -16z m389 -104 l0 -65 -175 0 -175 0 -3 54 c-5 86 -15 82 180 79 l173 -3 0 -65z m376 -158 l29 -32 0 -195 0 -195 -580 0 -580 0 -1 173 c-2 203 -1 206 13 234 26 53 32 53 581 50 l509 -2 29 -33z m-721 -541 c0 -73 19 -91 92 -91 44 0 48 -2 48 -24 0 -37 10 -56 30 -56 20 0 30 19 30 56 0 22 4 24 50 24 69 0 90 22 90 95 l0 55 205 0 205 0 0 -118 c0 -132 -8 -154 -66 -178 -49 -21 -979 -21 -1028 0 -58 24 -66 46 -66 178 l0 118 205 0 205 0 0 -59z m290 14 l0 -45 -44 0 c-43 0 -45 1 -48 33 -2 27 -7 32 -28 32 -21 0 -26 -5 -28 -32 -3 -32 -5 -33 -48 -33 l-44 0 0 45 0 45 120 0 120 0 0 -45z" id="svg_2" fill="#ffffff" fill-opacity="1"/>
</g></g></svg>