<svg xmlns="http://www.w3.org/2000/svg" version="1.0" width="128.000000" height="128.000000" preserveAspectRatio="xMidYMid meet"><rect id="backgroundrect" width="100%" height="100%" x="0" y="0" fill="none" stroke="none"/>


<g class="currentLayer" style=""><title>Layer 1</title><g transform="translate(0,128) scale(0.10000000149011612,-0.10000000149011612) " fill="#ffffff" stroke="none" id="svg_1" class="selected" fill-opacity="1">
<path d="M95 1196 c-42 -19 -71 -54 -85 -101 -8 -28 -10 -147 -8 -397 3 -342 4 -358 24 -384 50 -67 55 -69 285 -72 l209 -3 0 -59 0 -59 -37 -3 c-30 -2 -38 -7 -38 -23 0 -19 8 -20 203 -23 l202 -2 0 25 c0 23 -4 25 -45 25 l-45 0 0 59 0 60 209 3 c239 3 246 6 289 89 23 44 23 46 20 411 -3 352 -4 368 -24 394 -11 15 -33 37 -48 48 -27 21 -40 21 -554 23 -424 2 -533 0 -557 -11z m1047 -46 c20 -6 46 -22 58 -37 19 -25 20 -39 20 -314 l0 -289 -580 0 -580 0 0 289 c0 276 1 289 21 315 11 14 35 30 52 35 45 13 962 14 1009 1z m78 -740 c0 -41 -5 -56 -29 -82 l-29 -33 -522 0 -522 0 -29 33 c-24 26 -29 41 -29 82 l0 50 580 0 580 0 0 -50z m-520 -230 l0 -60 -60 0 -60 0 0 60 0 60 60 0 60 0 0 -60z" id="svg_2" fill="#ffffff" fill-opacity="1"/>
<path d="M955 950 c-58 -77 -109 -140 -113 -140 -4 1 -29 30 -56 65 -26 36 -54 65 -60 65 -7 0 -47 -40 -90 -90 -43 -49 -81 -90 -86 -90 -5 0 -35 45 -66 100 -36 61 -65 100 -75 100 -19 0 -223 -326 -215 -346 15 -39 43 -10 126 126 97 159 82 156 157 23 29 -52 53 -83 63 -83 9 0 52 40 96 90 43 49 82 90 85 90 3 0 29 -29 57 -65 29 -36 59 -65 66 -65 8 0 65 69 127 153 62 83 117 158 122 165 10 12 -7 42 -24 42 -5 0 -56 -63 -114 -140z" id="svg_3" fill="#ffffff" fill-opacity="1"/>
</g></g></svg>