<?xml version="1.0" encoding="utf-8"?>
<!-- Generator: Adobe Illustrator 23.0.3, SVG Export Plug-In . SVG Version: 6.00 Build 0)  -->
<svg version="1.1" id="a796d662-df88-4f26-a9fb-507639e97414"
	 xmlns="http://www.w3.org/2000/svg" xmlns:xlink="http://www.w3.org/1999/xlink" x="0px" y="0px" viewBox="0 0 38 38"
	 style="enable-background:new 0 0 38 38;" xml:space="preserve">
<style type="text/css">
	.st0{fill:#FFB400;}
	.st1{fill:#FFFFFF;}
</style>
<path class="st0" d="M36.7,33.4L28.4,19L20.1,4.6C19.8,4,19,3.8,18.3,4.2c-0.2,0.1-0.4,0.3-0.5,0.5L9.6,19L1.3,33.4
	c-0.4,0.6-0.1,1.4,0.5,1.8c0.2,0.1,0.4,0.2,0.6,0.2h33.2c0.7,0,1.3-0.6,1.3-1.3C36.9,33.8,36.8,33.6,36.7,33.4z"/>
<circle class="st1" cx="19" cy="29" r="1.5"/>
<path class="st1" d="M19,25.3L19,25.3c-0.5,0-0.9-0.4-1-0.9l-0.3-7.2c0-0.7,0.5-1.4,1.3-1.4c0,0,0,0,0.1,0l0,0
	c0.7,0,1.3,0.6,1.3,1.3c0,0,0,0,0,0.1l-0.4,7.2C19.9,24.8,19.5,25.3,19,25.3z"/>
</svg>
